Patient4_TMGait_0pt4_03_left_16_EMG.mot
version=1
nRows=40
nColumns=33
inDegrees=no
endheader
time	1LAddLong	2LGlutMax	3LGlutMed	4LIliopsoas	5LSemiMemb	6LBicFemLong	7LRecFem	8LVastMed	9LVastLat	10LGasMed	11LTibAnt	12lTibPost	13LPeroneusLong	14LSol	15LExtDigLong	16LFlexDigLong	17RAddLong	18RGlutMax	19RGlutMed	20RIliopsoas	21RSemiMemb	22RBicFemLong	23RRecFem	24RVastMed	25RVastLat	26RGasMed	27RTibAnt	28RTibPost	29RPeroneusLong	30RSol	31RExtDigLong	32RFlexDigLong
21.71	0.002441	-0.17899	0.014496	0.012512	0.016022	0.027924	0.1471	-0.00061	-0.088501	-0.13596	0.019073	0.003052	-0.028534	0.17929	-0.003357	-0.001526	0.17822	0.036469	0.56274	-0.19455	-0.21973	-0.23529	0.15808	-0.19699	-0.052185	-0.00061	-0.011749	-0.010834	0.070648	-0.03067	-0.006866	0.000305
21.711	0.011902	-0.15869	-0.006714	0.031433	0.012207	0.058746	0.14679	-0.002289	-0.088806	-0.11108	0.01709	0.008545	0.014954	0.18417	0.019684	0.007324	0.23499	-0.011749	0.40543	0.07309	-0.29236	-0.19058	0.25482	-0.41885	-0.087738	-0.004272	-0.012817	-0.011902	0.059357	-0.030365	-0.003357	0.00473
21.712	0.008698	-0.16388	-0.023804	0.014801	-0.003662	0.048828	0.14496	0.002289	-0.078583	-0.16602	0.014801	0.010834	-0.017242	0.21759	0.033875	0.00473	0.21698	-0.071869	0.49927	0.30884	-0.28519	-0.103	0.19669	-0.5188	-0.046234	-0.011749	-0.001678	-0.013733	0.026703	-0.046844	-0.004883	0.006409
21.713	0.006866	-0.16113	-0.040436	0.016022	0.00473	-0.007172	0.13565	0.002441	-0.077667	-0.014038	0.016785	0.012665	-0.087585	0.19363	0.030823	-0.000153	0.059967	-0.071716	0.31906	0.26779	-0.28442	0.17151	-0.089264	-0.32455	0.053864	-0.013123	0.006714	-0.019684	0.003662	-0.0177	-0.002441	0.007477
21.714	0.009308	-0.13519	-0.031891	0.007935	0.019073	-0.011292	0.15701	0.005798	-0.084381	0.02243	0.031281	0.014496	-0.14328	0.15808	0.028992	0.002289	-0.20676	-0.12604	0.27969	0.096741	-0.34058	0.54642	-0.32974	0.13367	0.2388	-0.012512	0.026855	-0.010223	-0.037994	-0.028381	-0.001831	0.000305
21.715	0.006714	-0.10849	-0.052185	-0.003662	0.018616	-0.00412	0.15961	0	-0.082397	-0.009308	0.033875	0.010986	-0.19363	0.16785	0.016785	-0.011292	-0.28244	-0.21027	0.36713	0.12161	0.082245	0.5574	-0.4306	0.53665	0.33936	-0.00824	0.026398	-0.011902	-0.02243	-0.028229	-0.000916	-0.005188
21.716	0.007172	-0.099335	-0.082855	-0.010529	0.030823	-0.023499	0.15701	0.001831	-0.083008	-0.017548	0.037689	0.014038	-0.09491	0.10666	0.00351	0.007019	-0.15961	-0.21744	0.21088	0.057831	0.53406	0.26093	-0.37277	0.50781	0.20447	-0.008392	0.000763	-0.013123	0.027771	-0.026398	-0.000763	-0.010529
21.717	0.000305	-0.07431	-0.089722	-0.009308	0.03418	-0.04425	0.15488	0.005493	-0.076752	-0.001831	0.041199	0.019073	-0.025024	0.056763	-0.004883	-0.045471	-0.071106	-0.18082	0.15503	-0.004883	0.1445	0.14603	-0.28763	0.43518	0.074005	0.001526	-0.011444	-0.012054	0.030212	-0.028687	-0.006256	-0.008698
21.718	0.004578	-0.067291	-0.0914	0.003357	0.041199	-0.010223	0.18951	0.003815	-0.078735	-0.12268	0.036163	0.036011	0.023041	-0.00824	0.012207	-0.00412	-0.031891	-0.19333	0.15289	-0.066223	-0.10071	0.061951	-0.14847	0.37354	0.085297	-0.003204	-0.007019	-0.014801	0.011749	-0.016632	-0.006866	-0.009155
21.719	0.000916	-0.061951	-0.11948	0.006256	0.023651	0.030823	0.18616	0.006409	-0.07309	-0.24323	0.015259	0.070496	0.032959	-0.06073	0.022125	0.072327	0.012665	-0.23346	0.13229	-0.045471	-0.034485	0.024719	0.031433	0.2182	0.06134	-0.007172	0.021973	-0.008087	-0.042419	-0.025177	-0.004272	-0.006866
21.72	0.00946	-0.040741	-0.11276	-0.010529	0.020447	0.026245	0.19211	0	-0.10223	-0.32638	0.021362	0.074768	0.20096	-0.11536	-0.018311	-0.14008	0.075073	-0.22171	0.10819	-0.033112	-0.05188	0.017853	-0.034943	0.092773	-0.026855	-0.012512	0.015564	-0.013428	-0.052185	-0.04364	-0.002899	-0.015869
21.721	0.00473	-0.029602	-0.12314	0.009003	0.02243	0.00351	0.17853	0.001373	-0.077667	-0.14893	0.016327	0.069885	0.096283	-0.13062	-0.011597	0.073395	0.055389	-0.21866	0.17075	0.030823	0.13489	0.007172	-0.077362	0.00824	-0.15961	-0.011292	-0.016937	-0.014496	-0.021667	-0.042877	-0.001373	-0.008698
21.722	0.006409	-0.027466	-0.12192	0.016632	0.003815	0.009003	0.17303	0.00061	-0.088043	0.005188	0.024109	0.049744	-0.006561	-0.044861	0.030823	0.24338	0.030212	-0.23972	0.15793	0.003967	-0.18265	-0.037231	-0.066223	-0.052795	-0.38788	-0.015869	-0.007782	-0.015411	-0.048981	-0.036316	-0.002441	-0.011444
21.723	-0.002899	-0.034027	-0.14191	0.028229	0.016022	0.000305	0.19134	-0.000916	-0.090485	-0.00824	0.010681	0.042267	-0.070496	0.020142	0.030823	-0.03952	-0.078583	-0.35446	0.33707	-0.054474	-0.65872	0.023651	-0.035095	0.034485	-0.50873	-0.005341	-0.02533	-0.011139	-0.031891	-0.041351	-0.002899	-0.007935
21.724	-0.002289	0.015564	-0.13153	0.021973	0.020752	0.040588	0.19516	0.002289	-0.076447	0.19745	0.020905	0.009918	-0.057373	0.049286	0.007324	-0.14862	-0.1268	-0.39932	0.90027	-0.075378	-0.53329	0.051575	-0.074005	0.28015	-0.40634	-0.011292	0.00885	-0.010986	-0.055695	-0.035248	-0.004425	-0.008698
21.725	0.00412	-0.005035	-0.14206	0.012512	0.015869	0.019379	0.18768	-0.005646	-0.068665	0.48538	0.016327	0.001984	-0.034637	0.06424	-0.027008	-0.069733	-0.10925	-0.36514	0.32181	-0.045319	-0.34927	0.042877	-0.2504	0.26825	-0.25192	-0.012207	0.014038	-0.011749	-0.084076	-0.036621	-0.003662	-0.003357
21.726	0.005035	0.015106	-0.12848	0.017242	0.011139	0.013733	0.19165	0.001221	-0.068054	0.42267	0.018005	0.005341	0.06897	0.043945	-0.019073	-0.016174	-0.12909	-0.35889	-0.095062	-0.13306	-0.10696	0.087891	-0.35385	0.31097	-0.12207	-0.00885	-0.001526	-0.008392	-0.037384	-0.019073	-0.001678	-0.000305
21.727	0.004578	0.019531	-0.11581	0.031128	0.018463	0.007935	0.21835	-0.005188	-0.082397	0.72174	0.021057	0.012665	0.11749	0.077515	0.001678	-0.002289	-0.16388	-0.34134	-0.00061	-0.20065	0.30945	0.09613	-0.64972	0.45654	0.042572	-0.010376	0.008087	-0.008545	-0.053558	-0.042877	-0.002899	-0.001831
21.728	0.004578	0.012512	-0.15854	0.026398	0.022278	-0.000763	0.22385	0.001221	-0.074158	0.94544	0.012665	0.013123	0.11169	0.168	-0.004272	0.014801	-0.18204	-0.25009	0.058136	-0.17868	0.66437	-0.035706	-0.67749	0.44998	0.020752	-0.008545	-0.025787	-0.006866	0.013123	-0.016479	-0.001678	-0.001831
21.729	0.016022	0.031128	-0.1593	0.03067	0.012512	-0.042725	0.21576	-0.035858	-0.07843	0.087738	0.006866	-0.035248	0.16007	0.23041	-0.009766	0.00412	-0.15656	-0.098724	0.2179	-0.082703	0.28229	-0.13397	-0.50476	0.22903	-0.00473	-0.001373	-0.037384	-0.004425	0.021515	-0.022583	-0.006104	0.002441
21.73	0.003357	0.039978	-0.16815	0.001984	0.020599	-0.041351	0.20737	0.009766	-0.077362	-0.53009	0.010071	-0.075226	0.020905	0.37964	-0.016327	-0.57404	-0.082245	-0.12299	0.1886	0.044403	0.03479	-0.17883	-0.34851	0.071869	0.006714	-0.001526	-0.02533	0.003204	0.010071	-0.046082	-0.000153	0.002899
21.731	0.009766	0.050812	-0.1294	-0.023804	0.019989	-0.062866	0.23941	-0.041504	-0.066833	-0.25604	0.019531	-0.024261	-0.14938	0.25452	-0.031891	0.056	-0.060272	-0.098114	0.2002	0.21393	-0.03067	-0.13489	-0.3566	0.032349	0.10773	-0.005798	0.002594	0.003204	-0.035706	-0.036163	-0.005341	0.011749
21.732	0.010071	0.052643	-0.11902	-0.023346	0.019226	-0.048676	0.21515	-0.008087	-0.071564	-0.37079	0.026855	-0.027313	-0.15274	-0.023804	-0.025024	0.97046	-0.019836	-0.10025	0.34424	0.27359	-0.054169	-0.088196	-0.22964	-0.010529	0.07843	-0.007172	-0.002441	0.004272	-0.019989	-0.037231	-0.002899	0.00061
21.733	0.001221	0.062408	-0.12054	-0.007019	0.013885	-0.005188	0.24551	-0.00412	-0.083923	-0.29434	0.024719	-0.031738	-0.078583	-0.25223	-0.018616	-0.19882	0.031586	-0.16846	0.45349	0.10452	-0.050659	-0.075226	-0.089874	-0.088654	0.053558	-0.006256	-0.00351	0.001526	-0.012665	-0.042419	0.002289	-0.00473
21.734	0.007629	0.068512	-0.12634	-0.00061	0.028229	-0.043182	0.2211	-0.010529	-0.080872	0.029297	0.026093	-0.028381	0.050507	0.13107	-0.013428	-0.023193	0.044556	-0.24399	0.4773	-0.057373	-0.065002	-0.068207	-0.049591	-0.31632	0.077515	-0.00473	0.006104	0.007477	-0.049438	-0.055695	-0.00061	-0.004272
21.735	0.002747	0.11261	-0.13596	0.005798	0.039063	-0.026703	0.24643	0.010223	-0.084076	-0.21164	0.021515	-0.029144	0.10727	0.059052	-0.016937	-0.17838	0.063934	-0.18005	0.35675	-0.094452	-0.13794	-0.074158	-0.076599	-0.31723	0.21179	0.001373	0.009613	0.00824	-0.053253	-0.064545	-0.001678	-0.012665
21.736	-0.006104	0.12344	-0.13565	0.007019	0.039825	0.003815	0.23453	-0.005798	-0.098419	-0.092468	0.014954	-0.028839	0.076904	-0.17578	-0.035553	-0.025024	0.045776	-0.19333	0.45029	-0.056915	-0.31723	-0.0177	-0.18112	-0.14511	0.1918	-0.002136	0.019989	0.007935	-0.058899	-0.065613	-0.002289	-0.012054
21.737	-0.051575	0.10117	-0.13825	0.010681	0.032959	0.054932	0.21454	0.003662	-0.096436	0.33966	0.027008	-0.012665	0.00412	-0.14847	-0.020905	0.28686	0.070343	-0.19272	0.23834	-0.005341	-0.39154	0.007629	-0.20157	-0.041046	0.19547	-0.001373	0.006866	0.012512	-0.047913	-0.066223	-0.002441	-0.014191
21.738	-0.036163	0.12039	-0.13962	0.003204	0.014801	0.074005	0.22583	0.001678	-0.076599	0.41962	0.028687	-0.006256	-0.15015	-0.015106	-0.002441	0.026855	0.14374	-0.1442	0.098724	0.059204	-0.36606	-0.057526	-0.34424	-0.069427	0.18799	-0.005188	0.000153	0.014801	-0.027618	-0.069733	-0.002289	-0.016937
21.739	-0.033875	0.14603	-0.15747	0.00473	0.002289	0.059814	0.22034	-0.000916	-0.083923	0.083466	0.008698	-0.017548	-0.1741	0.073853	0.010071	0.034637	0.18417	-0.17425	0.049286	0.13504	-0.2626	-0.14191	-0.32745	-0.24826	0.15442	-0.007019	-0.005188	0.010071	-0.022583	-0.067596	-0.002441	-0.00946
21.74	0.018616	0.14252	-0.15472	0.019531	-0.005035	0.074768	0.19791	0.003357	-0.083771	-0.30716	0.007172	0.007477	0.018921	0.021667	0.016785	0.057678	0.18875	-0.18402	0.25024	0.077209	-0.32669	-0.28488	-0.17441	-0.33173	0.11856	-0.013275	-0.002899	0.008698	-0.019226	-0.043488	-0.002747	-0.012665
21.741	-0.004883	0.1796	-0.13962	0.004272	-0.000916	0.041351	0.20584	-0.004425	-0.079041	-0.57373	0.002289	0.13016	0.18539	-0.031281	0.033417	0.018311	0.15289	-0.14893	0.15045	0.00412	-0.3244	-0.26871	-0.18753	-0.39063	0.14648	-0.008698	0.012054	0.014343	-0.040131	-0.063171	-0.003052	-0.010223
21.742	0.002594	0.21362	-0.15503	0.022888	-0.005951	0.010681	0.19608	0.001221	-0.064697	-0.34424	0.004272	-0.041656	0.40283	0.06012	0.011139	-0.94284	0.042877	-0.13779	0.28442	-0.031891	-0.25986	-0.06134	-0.33524	-0.071564	0.21378	-0.003204	0.035248	0.017853	-0.087128	-0.098419	-0.003662	-0.007019
21.743	0.000153	0.1915	-0.15747	0.014038	0.002899	-0.001831	0.20355	-0.002899	-0.058441	-0.11444	0.013428	-0.032043	0.41046	0.159	-0.002136	0.38681	-0.054779	-0.081329	0.18601	0.00824	-0.046844	0.083313	-0.34958	0.18463	0.17288	-0.000305	0.024719	0.014496	-0.10117	-0.098267	-0.003967	-0.015869
21.744	0.001526	0.14847	-0.16083	0.018616	0.015717	-0.040436	0.21179	-0.003662	-0.051422	0.039978	0.036011	0.017853	0.11383	-0.13534	-0.040283	-0.029297	-0.095062	-0.055237	0.17868	-0.007019	0.16708	0.033417	-0.35614	0.25452	0.11627	-0.003357	0.016479	0.012665	-0.049744	-0.070801	-0.004883	-0.00885
21.745	0.010529	0.15854	-0.15854	0.021515	0.033264	-0.063934	0.19791	0.004883	-0.050659	-0.17563	0.019531	0.036926	0.17349	-0.2179	-0.023499	-0.046844	-0.081482	0.028076	0.12695	-0.025482	0.57236	-0.12894	-0.38971	0.30197	0.070038	0.00473	0.002136	0.010834	-0.025024	-0.043945	-0.002747	-0.003357
21.746	0.008087	0.14496	-0.15625	0.018463	0.044708	-0.095825	0.21561	0.000763	-0.05661	-0.27298	0.014954	0.041656	0.14664	-0.06073	-0.030518	0.27969	-0.062866	0.14069	0.31418	-0.021362	0.46692	-0.17502	-0.36072	0.20737	0.072021	0.000458	0.005341	0.011292	-0.053253	-0.068207	-0.002747	-0.011597
21.747	0.020447	0.12054	-0.14862	0.001221	0.036469	-0.1059	0.21668	0.000305	-0.048981	-0.15839	0.018158	0.036316	-0.10803	0.032501	-0.054321	0.030518	-0.073547	0.092468	0.16266	0.003204	0.26779	-0.10452	-0.22873	0.096741	0.1059	0.002289	-0.001373	0.010681	-0.020447	-0.091705	-0.002136	-0.008545
21.748	0.005188	0.12863	-0.15472	0.018616	0.041656	-0.038605	0.21973	0.005188	-0.047302	-0.001831	0.025635	0.010376	-0.085754	0.26688	-0.048218	0.021515	-0.093842	0.12924	0.037079	-0.10513	0.20828	-0.015411	-0.14664	-0.0383	0.093994	0.004425	0.000153	0.010834	-0.015106	-0.051422	-0.001526	-0.00824
21.749	0.00473	0.11673	-0.16144	0.008392	0.026093	-0.020142	0.25192	0.001984	-0.041351	0.031433	0.026093	-0.012665	-0.17059	0.43121	-0.035858	0.011139	-0.081177	0.12116	0.13412	-0.16113	0.23483	-0.020752	-0.15366	-0.048828	0.094452	0.008392	0.002441	0.013275	-0.023041	-0.003662	-0.002594	-0.009308
